<svg xmlns="http://www.w3.org/2000/svg" width="1200" height="600" viewBox="0 0 1200 600"><rect width="100%" height="100%" fill="#1e3a5f"/><path fill="#ffffff" d="M309.75 243.015h15.29v93.27h-8.9q-2.07 0-3.45-.68-1.39-.67-2.68-2.29l-48.7-62.17q.39 4.25.39 7.86v57.28h-15.29v-93.27h9.1q1.09 0 1.9.1t1.42.39 1.19.84q.58.54 1.29 1.45l48.89 62.43q-.19-2.26-.32-4.45t-.13-4.06zm34.06 27.09h15.99v66.18h-15.99zm18.19-19.28q0 2.06-.84 3.87-.84 1.8-2.23 3.16-1.38 1.35-3.26 2.16-1.87.8-3.99.8-2.07 0-3.91-.8-1.83-.81-3.19-2.16-1.35-1.36-2.16-3.16-.81-1.81-.81-3.87 0-2.13.81-4t2.16-3.23q1.36-1.35 3.19-2.16 1.84-.8 3.91-.8 2.12 0 3.99.8 1.88.81 3.26 2.16 1.39 1.36 2.23 3.23t.84 4m38.24 50.76q2.97 0 5.16-.81 2.2-.8 3.65-2.22t2.19-3.42.74-4.39q0-4.9-2.93-7.77-2.94-2.87-8.81-2.87t-8.8 2.87-2.93 7.77q0 2.32.74 4.32t2.19 3.46q1.45 1.45 3.68 2.25 2.22.81 5.12.81m18 37.67q0-1.94-1.16-3.16-1.16-1.23-3.16-1.91-2-.67-4.68-1-2.67-.32-5.67-.48t-6.2-.29q-3.19-.13-6.22-.52-2.64 1.49-4.29 3.49-1.64 2-1.64 4.64 0 1.74.87 3.26.87 1.51 2.77 2.61t4.93 1.71q3.04.61 7.42.61 4.45 0 7.68-.67 3.22-.68 5.32-1.88 2.09-1.19 3.06-2.83.97-1.65.97-3.58m-3.16-66.89h19.03v5.93q0 2.84-3.42 3.49l-5.94 1.09q1.36 3.42 1.36 7.49 0 4.9-1.97 8.86-1.97 3.97-5.45 6.74-3.48 2.78-8.22 4.29-4.74 1.52-10.23 1.52-1.93 0-3.74-.19-1.8-.2-3.54-.52-3.1 1.87-3.1 4.19 0 2 1.84 2.94 1.84.93 4.87 1.32t6.9.48q3.87.1 7.93.42 4.07.33 7.94 1.13 3.87.81 6.9 2.55t4.87 4.74 1.84 7.71q0 4.38-2.17 8.51-2.16 4.13-6.25 7.36-4.1 3.22-10.06 5.19-5.97 1.96-13.58 1.96-7.48 0-13.03-1.45t-9.22-3.87q-3.68-2.42-5.49-5.58-1.8-3.16-1.8-6.58 0-4.64 2.8-7.77 2.81-3.13 7.71-5-2.64-1.35-4.19-3.61t-1.55-5.93q0-1.49.55-3.07t1.61-3.12q1.07-1.55 2.68-2.94t3.8-2.48q-5.03-2.71-7.9-7.23-2.87-4.51-2.87-10.57 0-4.91 1.97-8.87 1.97-3.97 5.48-6.78 3.52-2.8 8.32-4.28 4.81-1.49 10.48-1.49 4.26 0 8 .87t6.84 2.55m41.67 23.22h30.05q0-3.1-.87-5.84t-2.61-4.8q-1.74-2.07-4.42-3.26-2.67-1.19-6.22-1.19-6.9 0-10.87 3.93-3.97 3.94-5.06 11.16m40.63 9.61h-40.96q.39 5.1 1.81 8.81 1.42 3.7 3.74 6.12t5.52 3.61q3.19 1.2 7.06 1.2t6.67-.91q2.81-.9 4.91-1.99 2.09-1.1 3.67-2 1.58-.91 3.07-.91 2 0 2.96 1.49l4.58 5.8q-2.64 3.1-5.93 5.19-3.29 2.1-6.87 3.36t-7.29 1.77q-3.71.52-7.19.52-6.9 0-12.84-2.29-5.93-2.29-10.32-6.77-4.38-4.49-6.9-11.1-2.51-6.61-2.51-15.32 0-6.77 2.19-12.74 2.19-5.96 6.29-10.38 4.09-4.42 10-7 5.9-2.58 13.32-2.58 6.25 0 11.54 2t9.1 5.84q3.8 3.84 5.96 9.41 2.16 5.58 2.16 12.74 0 3.62-.77 4.87-.78 1.26-2.97 1.26m15.87-64.76h15.93v95.85h-15.93zm124.55 16.39h-41.41v27.6h34.96v13.87h-34.96v37.99h-17.42v-93.27h58.83zm46.63 62.37v-11.16q-6.9.32-11.61 1.19t-7.55 2.23q-2.83 1.35-4.06 3.16-1.22 1.8-1.22 3.93 0 4.2 2.48 6 2.48 1.81 6.48 1.81 4.9 0 8.48-1.78 3.58-1.77 7-5.38m-33.67-34.77-2.84-5.09q11.42-10.45 27.48-10.45 5.81 0 10.39 1.9t7.74 5.29 4.8 8.09q1.65 4.71 1.65 10.32v41.8h-7.23q-2.26 0-3.48-.68-1.23-.67-1.94-2.74l-1.42-4.77q-2.51 2.26-4.9 3.97-2.38 1.7-4.96 2.87-2.58 1.16-5.52 1.77-2.93.61-6.48.61-4.19 0-7.74-1.13t-6.13-3.38q-2.58-2.26-4-5.61-1.42-3.36-1.42-7.81 0-2.51.84-5 .84-2.48 2.74-4.74 1.91-2.26 4.94-4.26t7.45-3.48 10.29-2.42q5.86-.93 13.41-1.13v-3.87q0-6.64-2.84-9.83-2.83-3.2-8.19-3.2-3.87 0-6.42.91-2.54.9-4.48 2.03-1.93 1.13-3.51 2.03t-3.52.9q-1.68 0-2.84-.87t-1.87-2.03m78.24-10.32.97 7.48q3.09-5.93 7.35-9.32 4.26-3.38 10.06-3.38 4.58 0 7.36 2l-1.04 11.93q-.32 1.16-.93 1.64-.61.49-1.65.49-.96 0-2.87-.32-1.9-.33-3.7-.33-2.65 0-4.71.78-2.07.77-3.71 2.22-1.65 1.45-2.9 3.52-1.26 2.06-2.36 4.71v40.76h-15.93v-66.18h9.35q2.45 0 3.42.87t1.29 3.13m69.02 45.09v-11.16q-6.91.32-11.61 1.19-4.71.87-7.55 2.23-2.84 1.35-4.06 3.16-1.23 1.8-1.23 3.93 0 4.2 2.48 6 2.49 1.81 6.49 1.81 4.9 0 8.48-1.78 3.58-1.77 7-5.38m-33.67-34.77-2.84-5.09q11.42-10.45 27.48-10.45 5.8 0 10.38 1.9t7.74 5.29 4.81 8.09q1.64 4.71 1.64 10.32v41.8h-7.22q-2.26 0-3.49-.68-1.22-.67-1.93-2.74l-1.42-4.77q-2.52 2.26-4.9 3.97-2.39 1.7-4.97 2.87-2.58 1.16-5.51 1.77-2.94.61-6.49.61-4.19 0-7.74-1.13-3.54-1.13-6.12-3.38-2.58-2.26-4-5.61-1.42-3.36-1.42-7.81 0-2.51.84-5 .84-2.48 2.74-4.74t4.93-4.26 7.45-3.48 10.29-2.42q5.87-.93 13.42-1.13v-3.87q0-6.64-2.84-9.83-2.84-3.2-8.19-3.2-3.87 0-6.42.91-2.55.9-4.48 2.03-1.94 1.13-3.52 2.03t-3.51.9q-1.68 0-2.84-.87t-1.87-2.03m88.36 17.16q2.97 0 5.16-.81 2.19-.8 3.65-2.22 1.45-1.42 2.19-3.42t.74-4.39q0-4.9-2.93-7.77-2.94-2.87-8.81-2.87t-8.8 2.87q-2.94 2.87-2.94 7.77 0 2.32.74 4.32.75 2 2.2 3.46 1.45 1.45 3.67 2.25 2.23.81 5.13.81m18 37.67q0-1.94-1.16-3.16-1.16-1.23-3.16-1.91-2-.67-4.68-1-2.68-.32-5.68-.48t-6.19-.29-6.22-.52q-2.65 1.49-4.29 3.49-1.65 2-1.65 4.64 0 1.74.87 3.26.87 1.51 2.78 2.61 1.9 1.1 4.93 1.71t7.42.61q4.45 0 7.67-.67 3.23-.68 5.33-1.88 2.09-1.19 3.06-2.83.97-1.65.97-3.58m-3.16-66.89h19.02v5.93q0 2.84-3.41 3.49l-5.94 1.09q1.36 3.42 1.36 7.49 0 4.9-1.97 8.86-1.97 3.97-5.45 6.74-3.48 2.78-8.23 4.29-4.74 1.52-10.22 1.52-1.93 0-3.74-.19-1.81-.2-3.55-.52-3.09 1.87-3.09 4.19 0 2 1.84 2.94 1.83.93 4.87 1.32 3.03.39 6.9.48 3.87.1 7.93.42 4.06.33 7.93 1.13 3.87.81 6.91 2.55 3.03 1.74 4.86 4.74 1.84 3 1.84 7.71 0 4.38-2.16 8.51t-6.25 7.36q-4.1 3.22-10.07 5.19-5.96 1.96-13.57 1.96-7.49 0-13.03-1.45-5.55-1.45-9.23-3.87-3.67-2.42-5.48-5.58-1.8-3.16-1.8-6.58 0-4.64 2.8-7.77 2.81-3.13 7.71-5-2.65-1.35-4.19-3.61-1.55-2.26-1.55-5.93 0-1.49.55-3.07t1.61-3.12q1.06-1.55 2.68-2.94 1.61-1.39 3.8-2.48-5.03-2.71-7.9-7.23-2.87-4.51-2.87-10.57 0-4.91 1.97-8.87 1.96-3.97 5.48-6.78 3.52-2.8 8.32-4.28 4.81-1.49 10.48-1.49 4.26 0 8 .87t6.84 2.55m41.66 23.22h30.06q0-3.1-.87-5.84t-2.61-4.8q-1.74-2.07-4.42-3.26t-6.22-1.19q-6.91 0-10.87 3.93-3.97 3.94-5.07 11.16m40.64 9.61h-40.96q.39 5.1 1.81 8.81 1.42 3.7 3.74 6.12t5.51 3.61q3.2 1.2 7.07 1.2t6.67-.91q2.81-.9 4.9-1.99 2.1-1.1 3.68-2 1.58-.91 3.06-.91 2 0 2.97 1.49l4.58 5.8q-2.64 3.1-5.93 5.19-3.29 2.1-6.87 3.36t-7.29 1.77q-3.71.52-7.19.52-6.9 0-12.84-2.29-5.93-2.29-10.32-6.77-4.38-4.49-6.9-11.1t-2.52-15.32q0-6.77 2.2-12.74 2.19-5.96 6.29-10.38 4.09-4.42 9.99-7t13.32-2.58q6.26 0 11.55 2t9.09 5.84q3.81 3.84 5.97 9.41 2.16 5.58 2.16 12.74 0 3.62-.77 4.87-.78 1.26-2.97 1.26"/></svg>