<svg xmlns="http://www.w3.org/2000/svg" width="200" height="80" viewBox="0 0 200 80"><rect width="100%" height="100%" fill="#12b5cb"/><path fill="#ffffff" d="M41.865 39.625h2.1q.95 0 1.66-.24.7-.24 1.16-.66t.68-.99q.23-.58.23-1.27 0-1.37-.91-2.11t-2.77-.74h-2.15zm6.23 2.79 4.52 6.68h-3.04q-.86 0-1.25-.68l-3.8-5.78q-.21-.33-.47-.47-.25-.13-.75-.13h-1.44v7.06h-3.36v-18.07h5.51q1.84 0 3.16.38t2.16 1.06q.84.69 1.24 1.65.4.95.4 2.1 0 .92-.27 1.73-.26.81-.77 1.47-.51.67-1.25 1.17t-1.69.78q.32.19.6.45.27.25.5.6m8.43-1.21h5.83q0-.6-.17-1.13t-.51-.93q-.33-.4-.85-.63t-1.21-.23q-1.34 0-2.11.76-.76.76-.98 2.16m7.88 1.86h-7.94q.08.99.35 1.71.28.72.73 1.19t1.06.7q.62.23 1.37.23t1.3-.18q.54-.17.95-.38l.71-.39q.31-.18.59-.18.39 0 .58.29l.89 1.13q-.52.6-1.15 1-.64.41-1.34.65-.69.25-1.41.35t-1.39.1q-1.34 0-2.49-.45-1.15-.44-2-1.31t-1.34-2.15q-.48-1.28-.48-2.97 0-1.31.42-2.47.43-1.15 1.22-2.01t1.94-1.36q1.14-.5 2.58-.5 1.21 0 2.24.39 1.02.39 1.76 1.13.74.75 1.15 1.83.42 1.08.42 2.47 0 .7-.15.94t-.57.24m7.02 6.03h-3.08v-10.5l-1.12-.18q-.36-.07-.58-.25t-.22-.52v-1.26h1.92v-.95q0-1.1.33-1.98.33-.87.95-1.49.62-.61 1.5-.93.89-.33 2-.33.89 0 1.65.24l-.06 1.55q-.01.17-.1.28t-.23.16q-.14.06-.33.08t-.4.02q-.55 0-.98.12-.43.11-.73.41-.3.29-.46.77t-.16 1.2v.85h3.34v2.2h-3.24zm10.65-13.03q1.43 0 2.6.47 1.17.46 2 1.31t1.28 2.07q.45 1.23.45 2.74 0 1.53-.45 2.75-.45 1.23-1.28 2.09t-2 1.32q-1.17.47-2.6.47t-2.61-.47q-1.17-.46-2.01-1.32-.83-.86-1.28-2.09-.46-1.22-.46-2.75 0-1.51.46-2.74.45-1.22 1.28-2.07.84-.85 2.01-1.31 1.18-.47 2.61-.47m0 10.84q1.6 0 2.37-1.07.77-1.08.77-3.15 0-2.08-.77-3.17-.77-1.08-2.37-1.08-1.62 0-2.4 1.09-.78 1.1-.78 3.16t.78 3.14 2.4 1.08m11.42-9.86.18 1.45q.6-1.15 1.43-1.81.82-.65 1.95-.65.89 0 1.42.38l-.2 2.32q-.06.22-.18.32-.12.09-.32.09-.18 0-.55-.06-.37-.07-.72-.07-.51 0-.91.15t-.72.44q-.32.28-.57.68-.24.4-.45.91v7.9h-3.09v-12.83h1.81q.48 0 .67.17.18.17.25.61m9.68 12.05h-3.08v-12.83h1.88q.6 0 .79.57l.2.95q.34-.38.71-.69t.78-.54q.42-.22.9-.35.49-.14 1.06-.14 1.21 0 1.99.66.79.66 1.17 1.74.3-.63.75-1.09t.99-.74q.54-.29 1.14-.43.61-.14 1.22-.14 1.07 0 1.89.33.83.32 1.39.95.56.62.85 1.52.3.9.3 2.07v8.16h-3.09v-8.16q0-1.23-.54-1.85-.53-.62-1.57-.62-.48 0-.88.17-.41.16-.72.47-.3.3-.48.77-.17.46-.17 1.06v8.16h-3.1v-8.16q0-1.29-.52-1.88t-1.52-.59q-.67 0-1.26.34-.58.33-1.08.9zm31.69-2.71q.98 0 1.74-.33.77-.32 1.3-.91.52-.59.8-1.43.29-.83.29-1.87v-10.82h3.36v10.82q0 1.61-.52 2.98t-1.49 2.36q-.97 1-2.35 1.55-1.39.56-3.13.56-1.75 0-3.14-.56-1.38-.55-2.35-1.55-.97-.99-1.49-2.36t-.52-2.98v-10.82h3.36v10.81q0 1.03.28 1.87.29.84.82 1.43.53.6 1.3.92.77.33 1.74.33m14.65-15.36v7.57h.79q.47 0 .79-.13.31-.13.53-.42l4.99-6.31q.31-.4.66-.56.34-.15.87-.15h2.9l-6.09 7.51q-.54.68-1.11.97.41.15.74.42t.63.71l6.28 8.46h-2.97q-.6 0-.89-.17t-.49-.49l-5.12-6.68q-.23-.34-.55-.47-.31-.14-.9-.14h-1.06v7.95h-3.36v-18.07z"/></svg>